<?xml version="1.0" encoding="UTF-8" standalone="no"?>
<svg
   version="1.1"
   id="svg210"
   width="800"
   height="800"
   viewBox="0 0 800 800"
   sodipodi:docname="newsalomon.svg"
   inkscape:version="1.2.2 (b0a8486541, 2022-12-01)"
   inkscape:export-filename="newsalomon.png"
   inkscape:export-xdpi="30"
   inkscape:export-ydpi="30"
   xmlns:inkscape="http://www.inkscape.org/namespaces/inkscape"
   xmlns:sodipodi="http://sodipodi.sourceforge.net/DTD/sodipodi-0.dtd"
   xmlns:xlink="http://www.w3.org/1999/xlink"
   xmlns="http://www.w3.org/2000/svg"
   xmlns:svg="http://www.w3.org/2000/svg"
   xmlns:rdf="http://www.w3.org/1999/02/22-rdf-syntax-ns#"
   xmlns:cc="http://creativecommons.org/ns#"
   xmlns:dc="http://purl.org/dc/elements/1.1/">
  <metadata
     id="metadata216">
    <rdf:RDF>
      <cc:Work
         rdf:about="">
        <dc:format>image/svg+xml</dc:format>
        <dc:type
           rdf:resource="http://purl.org/dc/dcmitype/StillImage" />
      </cc:Work>
    </rdf:RDF>
  </metadata>
  <defs
     id="defs214">
    <linearGradient
       inkscape:collect="always"
       id="linearGradient993">
      <stop
         style="stop-color:#0db712;stop-opacity:1;"
         offset="0"
         id="stop989" />
      <stop
         style="stop-color:#6a0096;stop-opacity:1;"
         offset="1"
         id="stop991" />
    </linearGradient>
    <filter
       y="-0.0033630713"
       height="1.0067261"
       inkscape:menu-tooltip="Darkens the edge with an inner blur and adds a flexible glow"
       inkscape:menu="Shadows and Glows"
       inkscape:label="Dark and Glow"
       style="color-interpolation-filters:sRGB"
       id="filter286"
       x="-0.0033630713"
       width="1.0067261">
      <feGaussianBlur
         stdDeviation="0.93075275"
         result="result6"
         id="feGaussianBlur276" />
      <feComposite
         result="result8"
         in="SourceGraphic"
         operator="atop"
         in2="result6"
         id="feComposite278" />
      <feComposite
         result="result9"
         operator="over"
         in2="SourceAlpha"
         in="result8"
         id="feComposite280" />
      <feColorMatrix
         values="1 0 0 0 0 0 1 0 0 0 0 0 1 0 0 0 0 0 1 0 "
         result="result10"
         id="feColorMatrix282" />
      <feBlend
         in="result10"
         mode="normal"
         in2="result6"
         id="feBlend284" />
    </filter>
    <linearGradient
       inkscape:collect="always"
       xlink:href="#linearGradient993"
       id="linearGradient995"
       x1="119.89077"
       y1="757.61884"
       x2="119.96359"
       y2="7.7635608"
       gradientUnits="userSpaceOnUse"
       gradientTransform="translate(11.498492,-5.3180908)" />
  </defs>
  <sodipodi:namedview
     pagecolor="#ffffff"
     bordercolor="#666666"
     borderopacity="1"
     objecttolerance="10"
     gridtolerance="10"
     guidetolerance="10"
     inkscape:pageopacity="0"
     inkscape:pageshadow="2"
     inkscape:window-width="1916"
     inkscape:window-height="1031"
     id="namedview212"
     showgrid="false"
     inkscape:zoom="1.0631359"
     inkscape:cx="399.76076"
     inkscape:cy="400.23107"
     inkscape:window-x="2"
     inkscape:window-y="21"
     inkscape:window-maximized="0"
     inkscape:current-layer="svg_salomon"
     inkscape:document-rotation="0"
     inkscape:showpageshadow="2"
     inkscape:pagecheckerboard="0"
     inkscape:deskcolor="#d1d1d1" />
  <g
     inkscape:groupmode="layer"
     inkscape:label="Image"
     id="svg_salomon"
     inkscape:highlight-color="#ffd139">
    <g
       id="salomon"
       inkscape:label="salomon">
      <g
         id="paths"
         transform="translate(-8.5488515,22.789724)"
         inkscape:label="paths"
         style="opacity:1">
        <path
           style="fill:url(#linearGradient995);fill-opacity:1;stroke-width:3.02652"
           d="m 355.27579,749.47232 c -12.67157,-1.2137 -33.78153,-4.5918 -46.91104,-7.5068 -13.12951,-2.915 -35.42918,-9.374 -49.55485,-14.3533 -14.12566,-4.9794 -44.08819,-18.4654 -66.5834,-29.969 -29.19495,-14.9297 -43.72439,-24.2596 -50.76788,-32.6001 l -9.86751,-11.6844 27.31458,-58.4069 c 15.02303,-32.1238 27.94676,-59.039 28.71941,-59.8117 0.77265,-0.7726 18.30372,6.3184 38.95792,15.7578 20.65421,9.4395 49.52127,21.2082 64.14903,26.1527 14.62778,4.9445 36.51529,11.0389 48.63894,13.5431 12.12362,2.5042 34.01727,4.5295 48.65258,4.5006 14.6353,-0.03 35.82965,-2.0064 47.09858,-4.3943 11.26891,-2.3879 28.73017,-8.7342 38.80278,-14.1029 10.0726,-5.3686 23.64883,-15.822 30.16937,-23.2297 6.52058,-7.4078 13.22604,-18.4025 14.90107,-24.4327 1.67502,-6.0303 3.05309,-15.9802 3.06235,-22.1109 0.0151,-9.4674 -1.92105,-12.7202 -12.84582,-21.5897 -7.07448,-5.7436 -21.0343,-14.4984 -31.02181,-19.4551 -9.98752,-4.9567 -35.86425,-16.1375 -57.50385,-24.8461 -21.63961,-8.7086 -51.71939,-21.84761 -66.84396,-29.19784 -15.12457,-7.35023 -34.07126,-18.03659 -42.10374,-23.74748 -8.03248,-5.71089 -21.84465,-17.4204 -30.6937,-26.0211 -8.84903,-8.60073 -23.7548,-27.78649 -33.1239,-42.63501 -9.3691,-14.84853 -19.80654,-34.11127 -23.1943,-42.80611 -4.26848,-10.95523 -6.60809,-25.69871 -7.62046,-48.02169 -1.06749,-23.53849 -0.10051,-38.32747 3.59092,-54.91977 2.77849,-12.48879 10.23995,-33.40324 16.58102,-46.47658 6.34106,-13.07334 16.30923,-29.465483 22.15148,-36.426983 5.84225,-6.96152 18.43039,-19.490014 27.97364,-27.841104 9.54326,-8.35109 29.18835,-21.297346 43.65576,-28.769466 14.46741,-7.47213 36.46257,-16.40066 48.8781,-19.84118 12.41554,-3.44052 37.13139,-7.8742298 54.92408,-9.8526898 24.67229,-2.74343 41.95236,-2.77309 72.80675,-0.12496 22.25102,1.90973 52.6408,6.2046698 67.53288,9.5443198 14.8921,3.33964 36.61006,9.36937 48.26216,13.39939 11.65209,4.03002 27.14435,9.74809 34.42725,12.70682 11.29003,4.58666 14.30093,7.774768 20.42899,21.631416 3.95306,8.93855 7.18738,17.862604 7.18738,19.831224 0,1.96862 -10.37702,28.147013 -23.06007,58.174193 -12.68305,30.02717 -23.32217,54.90598 -23.6425,55.28625 -0.32032,0.38027 -12.75568,-4.11426 -27.6341,-9.98785 -14.87843,-5.87358 -39.99006,-14.12171 -55.80361,-18.32918 -19.72636,-5.24852 -40.15264,-8.15365 -65.07014,-9.25459 -27.33017,-1.20754 -41.38998,-0.40738 -56.81176,3.23323 -11.27145,2.66084 -25.87437,7.58299 -32.45093,10.9381 -6.57656,3.35511 -16.59004,10.16773 -22.25217,15.13915 -5.66213,4.97142 -13.26977,15.95447 -16.90586,24.40678 -3.63609,8.45231 -6.19144,19.52036 -5.67857,24.59567 0.77876,7.70674 4.05645,11.11269 19.88429,20.66249 10.42348,6.28906 40.38601,19.93564 66.5834,30.32573 26.19736,10.39008 62.73646,26.24925 81.19795,35.24261 19.98631,9.73612 43.4576,24.26544 58.01488,35.91272 13.44667,10.75867 29.27393,26.13477 35.17165,34.16909 5.89774,8.03432 16.87499,27.43442 24.39392,43.1113 7.5189,15.6769 15.74237,36.6207 18.27439,46.5418 2.55299,10.0035 4.6036,31.0206 4.6036,47.1836 0,19.1409 -2.07695,37.3625 -6.05076,53.0848 -3.32793,13.1668 -10.76133,33.4732 -16.51871,45.1253 -5.75738,11.6521 -16.31336,28.2455 -23.45779,36.8744 -7.14443,8.6288 -21.49542,22.511 -31.89114,30.8493 -10.39573,8.3384 -28.78183,19.9735 -40.858,25.856 -12.07617,5.8824 -33.57247,14.0002 -47.7695,18.0395 -14.19707,4.0393 -40.65081,8.8375 -58.78614,10.6627 -18.13532,1.8252 -39.20594,3.1281 -46.82362,2.8952 -7.61766,-0.2327 -24.21796,-1.4163 -36.88951,-2.6301 z"
           id="path_filling"
           inkscape:highlight-color="#03c05c"
           inkscape:label="filling" />
        <path
           style="opacity:1;fill:#000000;fill-opacity:1;stroke:#000000;stroke-width:24;stroke-miterlimit:4;stroke-dasharray:none;stroke-opacity:1"
           d="m 338.3746,751.92092 c -47.37343,-6.0837 -87.47864,-19.6066 -147.81573,-49.8416 -28.61081,-14.3369 -43.26824,-23.6329 -51.36157,-32.5742 -6.22892,-6.8816 -11.38118,-14.2594 -11.44943,-16.3951 -0.15013,-4.6959 50.9509,-115.6008 55.73512,-120.9624 2.65317,-2.9733 11.88086,0.063 43.04358,14.1631 75.59876,34.206 128.19273,47.7078 173.48383,44.5364 67.0536,-4.6953 109.7309,-32.9561 116.8324,-77.3659 1.8443,-11.5337 1.1804,-13.1725 -9.3637,-23.1169 -14.3362,-13.5208 -32.8599,-22.8384 -101.6458,-51.1288 -62.6088,-25.7498 -93.1341,-42.2008 -116.92849,-63.016 -21.50124,-18.8091 -27.81072,-26.5138 -47.84487,-58.4245 -26.5945,-42.3601 -35.00856,-79.18 -28.68487,-125.52482 C 221.46426,125.65782 253.96241,74.865619 309.7347,40.104259 360.1235,8.6983388 410.7665,-2.8192212 487.7794,-0.38783123 553.4271,1.6847488 607.7032,13.117429 656.3598,35.121859 c 15.6006,7.05519 18.1289,11.21368 23.698,20.09386 17.1452,27.33861 9.9863,27.5381 -15.4779,87.380531 -13.0779,30.73363 -25.2776,55.87935 -27.1106,55.87935 -1.8329,0 -17.8229,-5.46045 -35.5332,-12.13433 -50.4808,-19.02295 -79.7489,-25.1396 -121.723,-25.43852 -41.7191,-0.29711 -69.8798,6.54069 -91.5316,22.22514 -15.0868,10.92884 -27.842,31.67073 -28.8144,46.85643 -0.6731,10.511 0.2551,11.768 15.9311,21.5721 9.1552,5.7259 43.2883,21.1683 75.8513,34.3165 66.8037,26.9739 83.4499,34.9108 112.5353,53.6569 34.352,22.1405 56.1981,46.6372 75.8457,85.0481 22.3501,43.6941 27.4202,63.2204 27.3421,105.3014 -0.1855,99.9466 -60.6399,179.3911 -159.9208,210.1558 -44.9348,13.9242 -114.9034,18.8428 -169.0772,11.8858 z m 117.9316,-8.7998 c 62.1066,-7.8382 121.6116,-38.9607 157.9687,-82.6213 17.3791,-20.8702 36.0328,-59.1968 41.4782,-85.2227 5.7098,-27.289 5.672,-67.4458 -0.086,-91.8729 -6.3621,-26.9883 -35.1742,-81.8756 -53.511,-101.939 -15.5047,-16.9645 -52.0297,-42.9383 -80.2328,-57.0553 -8.6867,-4.3481 -41.3731,-18.1752 -72.6364,-30.727 -31.2633,-12.5517 -66.1914,-28.3662 -77.6179,-35.1432 l -20.7755,-12.3218 1.3409,-16.1703 c 2.616,-31.54486 27.7858,-58.49071 65.5604,-70.18651 13.0349,-4.03586 27.6524,-5.25407 62.4187,-5.20184 50.4151,0.0757 75.0715,4.86135 126.8488,24.62031 14.8555,5.66908 27.9324,9.243 29.0598,7.94204 1.1274,-1.30095 11.8906,-25.55355 23.9182,-53.89465 l 21.8683,-51.529281 -5.7332,-15.05411 c -5.21,-13.68053 -7.5079,-15.93824 -25.1846,-24.74395 -22.2389,-11.07838 -74.6808,-26.07663 -110.2471,-31.53039 -38.0141,-5.8291102 -107.265,-5.1338602 -137.659,1.38203 -54.5842,11.70181 -96.33131,33.47026 -128.6746,67.09556 -36.6501,38.102811 -52.69071,76.386221 -55.15451,131.634841 -1.42546,31.96475 -0.89619,36.75185 6.4859,58.66295 56.88949,107.9423 80.2461,120.7888 197.86571,168.7337 45.6302,18.4725 70.9688,30.8556 85.1873,41.6313 l 10.4221,7.8985 c 0.796,-0.1965 1.2643,1.2988 1.2494,2.1185 6.5427,6.5427 4.3075,33.1687 -4.2213,50.2837 -18.286,36.6951 -65.6257,58.0657 -128.6264,58.0657 -47.9502,0 -92.40178,-11.8852 -162.60117,-43.4753 l -37.2869,-16.7793 -4.10331,9.6983 c -2.25683,5.3341 -13.73156,30.1273 -25.49942,55.096 -11.76787,24.9688 -21.3457,46.7598 -21.28406,48.4243 0.76084,20.5479 102.56961,72.0436 173.62006,87.8184 43.2936,9.6122 92.5684,11.0862 145.8429,4.3627 z"
           id="path_frame"
           sodipodi:nodetypes="ssssscssssssssssssssssssssssssssscsssscsssssscssssssccsccssscssssss"
           inkscape:label="frame"
           inkscape:highlight-color="#3e9efc" />
      </g>
    </g>
  </g>
</svg>
